<svg width="1903" height="1961" viewBox="0 0 1903 1961" fill="none" xmlns="http://www.w3.org/2000/svg">
<path d="M1024.3 412.974C1024.3 412.974 1436.54 477.476 1405.28 1064.9C1405.16 1067.07 1452.94 1098.8 1456.68 1102.18C1490 1132.32 1517.95 1170.91 1530.18 1216.05C1573.7 1376.79 1418.09 1542.42 1292.25 1586.39C1245.25 1602.81 1195.56 1610.78 1145.78 1612.23C822.172 1621.65 393.729 1415.97 371.724 1014.29C370.936 999.874 370.742 985.446 371.113 971.052C373.063 894.782 391.471 820.502 419.214 751.534C419.202 751.536 599.305 304.808 1024.3 412.974Z" fill="#F5D7B1"/>
<g style="mix-blend-mode:multiply" opacity="0.5">
<path d="M1415.7 1071.07C1411.24 1082.01 1406.79 1095.99 1405.55 1103.99C1400.25 1138.28 1411.98 1173.69 1432.36 1199.16C1451.71 1223.33 1479.35 1239.02 1506.1 1244.94C1515.14 1246.94 1526.07 1247.96 1535.64 1248.29C1525.55 1148.97 1444.71 1089.36 1415.7 1071.07Z" fill="#FFD5CD"/>
</g>
<g style="mix-blend-mode:multiply" opacity="0.5">
<path d="M834.653 1332.13C911.204 1315.68 958.71 1235 940.76 1151.93C922.81 1068.86 846.201 1014.85 769.65 1031.3C693.098 1047.76 645.592 1128.44 663.542 1211.51C681.492 1294.58 758.101 1348.59 834.653 1332.13Z" fill="#FFD5CD"/>
</g>
<path opacity="0.3" d="M1209.49 1099.79C1209.49 1099.79 1274.89 1037.57 1325.51 1096.07L1209.49 1099.79Z" fill="#D09B73"/>
<path d="M599.741 1409.91C382.17 1518.96 184.564 1245.29 247.77 1091.5C288.089 993.407 405.75 985.812 473.964 1075.44C514.221 1128.34 546.806 1195.96 565.316 1260.63" fill="#F5D7B1"/>
<path opacity="0.3" d="M420.424 1165.7C448.435 1194.21 470.958 1236.49 498.632 1260.08C493.503 1220.62 485.327 1178.48 466.157 1142.92C446.692 1106.79 411.308 1077.04 375.291 1079.48C330.655 1082.51 293.923 1134.51 289.215 1181.66C292.029 1153.44 348.76 1134.36 370.418 1137.04C404.354 1201 417.531 1327.03 417.531 1327.03C445.755 1255.69 434.297 1199.57 420.424 1165.7Z" fill="#D09B73"/>
<path d="M1305.74 1208.37C1315.19 1213.8 1381.26 1130.8 1425.25 1156.05C1440.1 1164.57 1451.43 1179.11 1459.94 1194.82C1478.63 1229.38 1485.03 1271.36 1477.5 1310.09C1466.84 1364.85 1429.9 1409.69 1386.45 1439.4C1269.53 1519.34 1176.77 1504.23 1051.98 1457.96C953.752 1421.54 819.916 1346.57 847.643 1211.3C896.448 973.2 1305.61 1208.3 1305.74 1208.37Z" fill="#873C41"/>
<path d="M967.231 1193.15C999.007 1212.88 1037.7 1214.91 1072.4 1207.04C1079.03 1205.53 1084.37 1211.11 1086.02 1217.51C1102.96 1283.36 1199.02 1317.73 1247.2 1275.51C1250.94 1272.23 1257.57 1271.45 1261.49 1275.17C1287.49 1299.84 1329.15 1306.54 1359.74 1289.84C1402.94 1266.27 1402.73 1200.04 1390.96 1153.91C1352.89 1165.54 1312.92 1212.49 1305.74 1208.35C1305.64 1208.29 1054.46 1064.02 922.223 1116.07C925.028 1148.04 939.706 1176.05 967.231 1193.15Z" fill="white"/>
<path d="M1327.5 1449.27C1258.8 1386.21 1174.32 1350.98 1088.67 1325.99C1015.4 1304.61 932.91 1290.75 858.753 1311.97C893.117 1385.74 981.541 1431.82 1051.98 1457.94C1161.14 1498.42 1245.79 1515.05 1343.54 1465.08C1338.21 1459.79 1333.02 1454.34 1327.5 1449.27Z" fill="#EE7E8B"/>
<path d="M1110.9 1001C1110.83 1038.23 1091.38 1068.45 1051 1062.26C1021.94 1054.47 1002.59 1033.98 1002.67 994.936C1002.75 954.026 1026.57 927.478 1051.27 927.432C1084.28 927.369 1110.97 963.771 1110.9 1001Z" fill="#2A1200"/>
<path d="M1386.17 1000.33C1386.12 1025.29 1374.83 1052.09 1345.93 1049.01C1321.67 1046.42 1315.48 1014.57 1315.51 998.896C1315.56 971.474 1329.3 945.567 1349.34 945.529C1370.89 945.488 1386.22 975.374 1386.17 1000.33Z" fill="#2A1200"/>
<path d="M1128.98 824.574C1090.05 805.287 1041.41 807.081 1002.37 829.072C989.783 836.162 981.656 853.11 988.108 867.479C994.064 880.769 1009.77 889.11 1023.25 881.506C1027.29 879.227 1031.41 877.157 1035.66 875.37C1036.98 874.812 1040.38 874.147 1041.7 873.131C1042.31 872.95 1042.91 872.767 1043.54 872.601C1047.38 871.565 1051.26 870.728 1055.17 870.088C1057.41 869.724 1059.64 869.435 1061.89 869.2C1062.6 869.129 1063.3 869.071 1064.02 869.015C1065.85 869.248 1068.14 868.921 1069.87 868.976C1072.11 869.047 1074.35 869.191 1076.59 869.4C1080.49 869.766 1084.37 870.332 1088.21 871.104C1088.75 871.212 1089.27 871.329 1089.81 871.45C1091.81 872.078 1093.83 872.658 1095.82 873.359C1100.05 874.855 1104.16 876.644 1108.19 878.632C1120.77 884.87 1138.52 876.057 1143.32 861.855C1148.59 846.215 1142.46 831.255 1128.98 824.574Z" fill="#351700"/>
<path d="M1400.32 838.13C1377.04 825.489 1350.34 822.647 1326.3 829.591C1319.82 831.467 1313.89 837.12 1311.12 843.371C1308.38 849.529 1307.82 858.347 1310.52 865.045C1313.33 871.996 1318.11 878.608 1324.86 881.907C1331.7 885.253 1338.7 886.113 1345.74 884.087C1346.9 883.752 1348.08 883.558 1349.26 883.282C1352.91 882.867 1356.59 882.758 1360.3 882.915C1364.75 883.589 1369.14 884.674 1373.47 886.166C1374.98 886.86 1376.53 887.476 1378.01 888.275C1384.38 891.731 1392.36 892.556 1398.89 890.456C1405.14 888.444 1411.55 883.068 1414.07 876.665C1416.68 870.035 1417.55 862.154 1414.66 854.992C1411.79 847.851 1407.07 841.789 1400.32 838.13Z" fill="#351700"/>
<path d="M1396.26 770.807C1317.82 444.767 1033.85 385.202 917.758 389.905C401.914 396.175 287.596 813.652 294.917 1040.42C298.055 1034.15 304.33 1029.45 304.33 1029.45C345.121 1007.5 368.654 1013.77 376.498 1013.77C512.99 1020.04 561.102 1181.49 552.211 1250.46C577.001 1273.68 610.972 1251.04 625.412 1241.41L625.948 1241.06C637.244 1233.53 625.948 1198.73 625.948 1178.36C597.708 1046.69 603.984 858.587 611.828 858.587C618.104 858.587 704.391 851.272 738.907 846.047C736.396 813.443 727.402 719.602 738.907 703.405C728.866 719.707 770.807 818.877 774.991 838.21C930.308 853.885 1247.22 797.455 1256.63 792.752C1264.16 788.99 1253.5 705.495 1247.22 664.217C1271.07 686.789 1290.63 763.492 1294.29 792.752C1324.41 790.244 1374.82 777.077 1396.26 770.807Z" fill="#71472D"/>
<path d="M956.979 440.065C1030.19 445.29 1199.84 490.852 1292.72 631.3C1256.11 555.015 1137.71 409.969 956.979 440.065Z" fill="#613D25"/>
<path d="M1107.59 590.545C1129.55 618.76 1174.11 695.881 1176.62 778.645C1192.31 745.205 1200.47 660.769 1107.59 590.545Z" fill="#613D25"/>
<path d="M483.181 853.885C498.242 685.849 608.691 562.33 662.032 521.575C461.217 586.783 417.289 801.635 420.426 900.91C422.937 775.51 494.686 668.92 530.247 631.3C497.615 688.984 485.273 803.725 483.181 853.885Z" fill="#613D25"/>
<g style="mix-blend-mode:multiply">
<path fill-rule="evenodd" clip-rule="evenodd" d="M863.391 982.567C873.805 1037.2 897.576 1089.36 942.29 1106.33C1033.18 1140.81 1164.8 1115.73 1183.61 1095.36C1191.4 1086.91 1202.68 1053.45 1211.9 1014.91C1257.84 993.315 1298.39 1001.7 1320.31 1012.15C1324.88 1043.79 1330.33 1070.78 1334.13 1077.79C1343.67 1095.38 1410.48 1117.03 1456.62 1087.26C1502.75 1057.49 1504.34 877.515 1495.59 858.57C1484.95 835.535 1321.12 846.508 1314.25 889.693C1309.05 904.425 1312.58 953.639 1318.41 998.267C1294.29 988.812 1256.94 983.522 1215.22 1000.36C1226.32 949.447 1232.83 894.223 1222.78 877.474C1206.73 822.995 872.964 799.483 865.509 841.422C856.812 865.226 853.179 917.718 861.263 970.198C724.88 952.8 497.128 924.155 447.374 918.916C431.263 917.219 400.205 921.386 374.189 936.55C361.073 944.195 348.99 954.779 340.831 969.082C332.634 983.45 328.611 1001.21 331.096 1022.76L343.017 1021.38C340.802 1002.17 344.417 987.013 351.254 975.028C358.128 962.977 368.472 953.771 380.232 946.917C403.968 933.082 432.455 929.411 446.117 930.85C496.158 936.119 727.411 965.213 863.391 982.567Z" fill="#595757"/>
</g>
<g style="mix-blend-mode:screen" opacity="0.2">
<mask id="mask0_8_541" style="mask-type:alpha" maskUnits="userSpaceOnUse" x="330" y="820" width="1170" height="304">
<g style="mix-blend-mode:multiply">
<path fill-rule="evenodd" clip-rule="evenodd" d="M862.767 977.791C872.824 1035.8 896.81 1092.72 945.045 1108.28C1042.2 1139.63 1164.8 1115.49 1183.61 1094.46C1191.51 1085.62 1203.76 1050.68 1213.35 1010.57C1258.71 989.135 1298.62 997.731 1320.29 1008.41C1324.86 1041.14 1330.32 1069.08 1334.13 1076.33C1343.67 1094.48 1410.48 1116.83 1456.61 1086.11C1502.75 1055.38 1504.34 869.652 1495.59 850.102C1454.76 836.137 1368.33 826.361 1314.25 882.22C1309.04 897.444 1312.58 948.349 1318.43 994.454C1294.58 984.811 1257.8 979.373 1216.66 996.016C1227.81 944.27 1233.38 888.286 1219.27 870.02C1176.96 826.13 941.912 804.185 866.696 835.535C858.202 846.696 852.371 905.113 860.832 965.433C724.399 947.473 497.095 917.971 447.393 912.57C431.238 910.814 400.146 915.126 374.118 930.783C360.991 938.678 348.927 949.594 340.791 964.312C332.624 979.086 328.617 997.334 331.094 1019.49L343.019 1018.16C340.795 998.262 344.427 982.54 351.293 970.118C358.191 957.64 368.554 948.133 380.303 941.066C404.026 926.796 432.48 923.02 446.097 924.5C496.062 929.929 726.707 959.873 862.767 977.791Z" fill="#595757"/>
</g>
</mask>
<g mask="url(#mask0_8_541)">
<path d="M1007.16 781.065L801.202 1066.01L857.68 1109.14L1122.82 772.835L1007.16 781.065Z" fill="white"/>
<path d="M1133.86 817.813L891.602 1118.87L900.845 1188.9L1198.32 839.735L1133.86 817.813Z" fill="white"/>
<path d="M1543.01 806.089L1300.75 1107.15L1310 1177.17L1607.47 828.012L1543.01 806.089Z" fill="white"/>
</g>
</g>
</svg>
